<mxfile host="app.diagrams.net" modified="2023-06-17T09:09:13.245Z" agent="Mozilla/5.0 (Windows NT 10.0; Win64; x64) AppleWebKit/537.36 (KHTML, like Gecko) Chrome/114.0.0.0 Safari/537.36" etag="Hmrpbj00QdM463x6YEpP" version="21.4.0" type="device">
  <diagram id="C5RBs43oDa-KdzZeNtuy" name="Page-1">
    <mxGraphModel dx="1050" dy="581" grid="1" gridSize="10" guides="1" tooltips="1" connect="1" arrows="1" fold="1" page="1" pageScale="1" pageWidth="827" pageHeight="1169" math="0" shadow="0">
      <root>
        <mxCell id="WIyWlLk6GJQsqaUBKTNV-0" />
        <mxCell id="WIyWlLk6GJQsqaUBKTNV-1" parent="WIyWlLk6GJQsqaUBKTNV-0" />
        <mxCell id="OtVp7UMmvByRTMtt62H5-2" value="Model" style="html=1;dropTarget=0;whiteSpace=wrap;" parent="WIyWlLk6GJQsqaUBKTNV-1" vertex="1">
          <mxGeometry x="710" y="160" width="110" height="50" as="geometry" />
        </mxCell>
        <mxCell id="OtVp7UMmvByRTMtt62H5-3" value="" style="shape=module;jettyWidth=8;jettyHeight=4;" parent="OtVp7UMmvByRTMtt62H5-2" vertex="1">
          <mxGeometry x="1" width="20" height="20" relative="1" as="geometry">
            <mxPoint x="-27" y="7" as="offset" />
          </mxGeometry>
        </mxCell>
        <mxCell id="OtVp7UMmvByRTMtt62H5-4" value="View" style="html=1;dropTarget=0;whiteSpace=wrap;" parent="WIyWlLk6GJQsqaUBKTNV-1" vertex="1">
          <mxGeometry x="120" y="160" width="110" height="50" as="geometry" />
        </mxCell>
        <mxCell id="OtVp7UMmvByRTMtt62H5-5" value="" style="shape=module;jettyWidth=8;jettyHeight=4;" parent="OtVp7UMmvByRTMtt62H5-4" vertex="1">
          <mxGeometry x="1" width="20" height="20" relative="1" as="geometry">
            <mxPoint x="-27" y="7" as="offset" />
          </mxGeometry>
        </mxCell>
        <mxCell id="OtVp7UMmvByRTMtt62H5-6" value="ViewModel" style="html=1;dropTarget=0;whiteSpace=wrap;" parent="WIyWlLk6GJQsqaUBKTNV-1" vertex="1">
          <mxGeometry x="414" y="160" width="120" height="50" as="geometry" />
        </mxCell>
        <mxCell id="OtVp7UMmvByRTMtt62H5-7" value="" style="shape=module;jettyWidth=8;jettyHeight=4;" parent="OtVp7UMmvByRTMtt62H5-6" vertex="1">
          <mxGeometry x="1" width="20" height="20" relative="1" as="geometry">
            <mxPoint x="-27" y="7" as="offset" />
          </mxGeometry>
        </mxCell>
        <mxCell id="OtVp7UMmvByRTMtt62H5-8" value="Client" style="html=1;whiteSpace=wrap;" parent="WIyWlLk6GJQsqaUBKTNV-1" vertex="1">
          <mxGeometry x="10" y="170" width="70" height="30" as="geometry" />
        </mxCell>
        <mxCell id="OtVp7UMmvByRTMtt62H5-9" value="" style="endArrow=classic;html=1;rounded=0;" parent="WIyWlLk6GJQsqaUBKTNV-1" source="OtVp7UMmvByRTMtt62H5-8" target="OtVp7UMmvByRTMtt62H5-4" edge="1">
          <mxGeometry width="50" height="50" relative="1" as="geometry">
            <mxPoint x="130" y="170" as="sourcePoint" />
            <mxPoint x="180" y="120" as="targetPoint" />
          </mxGeometry>
        </mxCell>
        <mxCell id="sBQfXGDFuQ71298oe_-F-0" value="" style="endArrow=classic;html=1;rounded=0;" edge="1" parent="WIyWlLk6GJQsqaUBKTNV-1" source="OtVp7UMmvByRTMtt62H5-4" target="OtVp7UMmvByRTMtt62H5-6">
          <mxGeometry width="50" height="50" relative="1" as="geometry">
            <mxPoint x="260" y="290" as="sourcePoint" />
            <mxPoint x="310" y="240" as="targetPoint" />
          </mxGeometry>
        </mxCell>
        <mxCell id="sBQfXGDFuQ71298oe_-F-2" value="Дані введення" style="edgeLabel;html=1;align=center;verticalAlign=middle;resizable=0;points=[];" vertex="1" connectable="0" parent="sBQfXGDFuQ71298oe_-F-0">
          <mxGeometry x="-0.263" y="1" relative="1" as="geometry">
            <mxPoint x="22" y="16" as="offset" />
          </mxGeometry>
        </mxCell>
        <mxCell id="sBQfXGDFuQ71298oe_-F-1" value="" style="endArrow=classic;html=1;rounded=0;" edge="1" parent="WIyWlLk6GJQsqaUBKTNV-1" source="OtVp7UMmvByRTMtt62H5-6" target="OtVp7UMmvByRTMtt62H5-2">
          <mxGeometry width="50" height="50" relative="1" as="geometry">
            <mxPoint x="440" y="340" as="sourcePoint" />
            <mxPoint x="490" y="290" as="targetPoint" />
          </mxGeometry>
        </mxCell>
        <mxCell id="sBQfXGDFuQ71298oe_-F-3" value="Оброблені дані введення" style="edgeLabel;html=1;align=center;verticalAlign=middle;resizable=0;points=[];" vertex="1" connectable="0" parent="sBQfXGDFuQ71298oe_-F-1">
          <mxGeometry x="-0.5705" relative="1" as="geometry">
            <mxPoint x="48" y="15" as="offset" />
          </mxGeometry>
        </mxCell>
        <mxCell id="sBQfXGDFuQ71298oe_-F-4" value="" style="endArrow=classic;html=1;rounded=0;" edge="1" parent="WIyWlLk6GJQsqaUBKTNV-1" source="OtVp7UMmvByRTMtt62H5-6" target="OtVp7UMmvByRTMtt62H5-4">
          <mxGeometry width="50" height="50" relative="1" as="geometry">
            <mxPoint x="320" y="80" as="sourcePoint" />
            <mxPoint x="290" y="310" as="targetPoint" />
            <Array as="points">
              <mxPoint x="420" y="120" />
              <mxPoint x="175" y="120" />
            </Array>
          </mxGeometry>
        </mxCell>
        <mxCell id="sBQfXGDFuQ71298oe_-F-7" value="Сповіщає про оновлений стан" style="edgeLabel;html=1;align=center;verticalAlign=middle;resizable=0;points=[];" vertex="1" connectable="0" parent="sBQfXGDFuQ71298oe_-F-4">
          <mxGeometry x="-0.0433" y="-1" relative="1" as="geometry">
            <mxPoint x="-21" y="-9" as="offset" />
          </mxGeometry>
        </mxCell>
        <mxCell id="sBQfXGDFuQ71298oe_-F-5" value="" style="endArrow=classic;html=1;rounded=0;" edge="1" parent="WIyWlLk6GJQsqaUBKTNV-1" source="OtVp7UMmvByRTMtt62H5-2" target="OtVp7UMmvByRTMtt62H5-6">
          <mxGeometry width="50" height="50" relative="1" as="geometry">
            <mxPoint x="450" y="350" as="sourcePoint" />
            <mxPoint x="500" y="300" as="targetPoint" />
            <Array as="points">
              <mxPoint x="765" y="120" />
              <mxPoint x="520" y="120" />
            </Array>
          </mxGeometry>
        </mxCell>
        <mxCell id="sBQfXGDFuQ71298oe_-F-6" value="Оновлений стан" style="edgeLabel;html=1;align=center;verticalAlign=middle;resizable=0;points=[];" vertex="1" connectable="0" parent="sBQfXGDFuQ71298oe_-F-5">
          <mxGeometry x="0.5102" y="-4" relative="1" as="geometry">
            <mxPoint x="87" y="-6" as="offset" />
          </mxGeometry>
        </mxCell>
      </root>
    </mxGraphModel>
  </diagram>
</mxfile>
